<svg width="139" height="33" viewBox="0 0 139 33" fill="none" xmlns="http://www.w3.org/2000/svg">
<path d="M8.38805 1.634C9.92806 1.634 11.3421 1.844 12.6301 2.264C13.9461 2.656 15.0801 3.258 16.0321 4.07C17.0121 4.854 17.7681 5.834 18.3001 7.01C18.8601 8.158 19.1401 9.502 19.1401 11.042C19.1401 12.246 18.9581 13.422 18.5941 14.57C18.2581 15.718 17.6841 16.768 16.8721 17.72C16.0601 18.644 14.9961 19.4 13.6801 19.988C12.3921 20.548 10.7961 20.828 8.89206 20.828H4.39805V32H0.324055V1.634H8.38805ZM8.80806 16.922C10.0121 16.922 11.0061 16.74 11.7901 16.376C12.6021 16.012 13.2321 15.55 13.6801 14.99C14.1281 14.402 14.4501 13.772 14.6461 13.1C14.8421 12.428 14.9401 11.798 14.9401 11.21C14.9401 10.594 14.8281 9.964 14.6041 9.32C14.4081 8.648 14.0721 8.032 13.5961 7.472C13.1481 6.912 12.5461 6.45 11.7901 6.086C11.0621 5.722 10.1661 5.54 9.10206 5.54H4.39805V16.922H8.80806ZM13.8061 19.232L21.7441 32H17.0401L8.97605 19.358L13.8061 19.232ZM28.0096 1.634H47.7496V5.54H32.0836V14.78H46.0696V18.686H32.0836V28.094H48.3376V32H28.0096V1.634ZM53.182 1.634H73.342V5.54H65.194V32H61.12V5.54H53.182V1.634ZM106.104 32.966L82.6263 9.152L83.8023 9.446L83.8863 32H79.8123V0.709997H80.0223L103.248 24.608L102.282 24.398L102.198 1.634H106.23V32.966H106.104ZM111.939 32L125.211 0.373999H125.463L138.693 32H134.031L124.119 6.758L127.017 4.868L115.929 32H111.939ZM119.709 20.492H131.007L132.351 24.02H118.533L119.709 20.492Z" fill="black"/>
<path d="M12.6301 2.264L12.32 3.21473L12.3323 3.21872L12.3446 3.22239L12.6301 2.264ZM16.0321 4.07L15.3831 4.83083L15.3951 4.84104L15.4074 4.85087L16.0321 4.07ZM18.3001 7.01L17.3889 7.42217L17.3949 7.43538L17.4013 7.44842L18.3001 7.01ZM18.5941 14.57L17.6408 14.2678L17.6375 14.2784L17.6343 14.2891L18.5941 14.57ZM16.8721 17.72L17.6232 18.3801L17.6281 18.3746L17.6329 18.3689L16.8721 17.72ZM13.6801 19.988L14.0788 20.9051L14.088 20.901L13.6801 19.988ZM4.39805 20.828V19.828H3.39805V20.828H4.39805ZM4.39805 32V33H5.39805V32H4.39805ZM0.324055 32H-0.675945V33H0.324055V32ZM0.324055 1.634V0.633998H-0.675945V1.634H0.324055ZM11.7901 16.376L11.381 15.4634L11.3689 15.469L11.7901 16.376ZM13.6801 14.99L14.4609 15.6147L14.4683 15.6055L14.4755 15.596L13.6801 14.99ZM14.6461 13.1L15.6061 13.38L15.6061 13.38L14.6461 13.1ZM14.6041 9.32L13.6441 9.6L13.6512 9.62446L13.6596 9.64852L14.6041 9.32ZM13.5961 7.472L12.8152 8.09669L12.8245 8.10831L12.8341 8.11965L13.5961 7.472ZM11.7901 6.086L11.3428 6.98043L11.3495 6.98376L11.3562 6.987L11.7901 6.086ZM4.39805 5.54V4.54H3.39805V5.54H4.39805ZM4.39805 16.922H3.39805V17.922H4.39805V16.922ZM13.8061 19.232L14.6553 18.704L14.3528 18.2174L13.78 18.2323L13.8061 19.232ZM21.7441 32V33H23.5433L22.5933 31.472L21.7441 32ZM17.0401 32L16.197 32.5378L16.4918 33H17.0401V32ZM8.97605 19.358L8.94998 18.3583L7.1817 18.4045L8.13297 19.8958L8.97605 19.358ZM8.38805 2.634C9.83693 2.634 11.1448 2.83149 12.32 3.21473L12.9401 1.31327C11.5393 0.856506 10.0192 0.633998 8.38805 0.633998V2.634ZM12.3446 3.22239C13.5401 3.5785 14.5471 4.11778 15.3831 4.83083L16.681 3.30917C15.613 2.39822 14.352 1.7335 12.9155 1.30561L12.3446 3.22239ZM15.4074 4.85087C16.2606 5.53342 16.9201 6.38571 17.3889 7.42217L19.2112 6.59783C18.616 5.28229 17.7636 4.17458 16.6568 3.28913L15.4074 4.85087ZM17.4013 7.44842C17.8824 8.43463 18.1401 9.62311 18.1401 11.042H20.1401C20.1401 9.38089 19.8377 7.88137 19.1988 6.57157L17.4013 7.44842ZM18.1401 11.042C18.1401 12.1434 17.9738 13.2175 17.6408 14.2678L19.5473 14.8722C19.9423 13.6265 20.1401 12.3486 20.1401 11.042H18.1401ZM17.6343 14.2891C17.3398 15.2955 16.836 16.2213 16.1112 17.0711L17.6329 18.3689C18.5321 17.3147 19.1764 16.1405 19.5538 14.8509L17.6343 14.2891ZM16.1209 17.0599C15.4187 17.8589 14.4792 18.5357 13.2721 19.075L14.088 20.901C15.5129 20.2643 16.7014 19.4291 17.6232 18.3801L16.1209 17.0599ZM13.2813 19.0709C12.1554 19.5605 10.7048 19.828 8.89206 19.828V21.828C10.8873 21.828 12.6287 21.5355 14.0788 20.9051L13.2813 19.0709ZM8.89206 19.828H4.39805V21.828H8.89206V19.828ZM3.39805 20.828V32H5.39805V20.828H3.39805ZM4.39805 31H0.324055V33H4.39805V31ZM1.32405 32V1.634H-0.675945V32H1.32405ZM0.324055 2.634H8.38805V0.633998H0.324055V2.634ZM8.80806 17.922C10.104 17.922 11.254 17.7274 12.2112 17.283L11.3689 15.469C10.7581 15.7526 9.92013 15.922 8.80806 15.922V17.922ZM12.1991 17.2885C13.1219 16.8749 13.8926 16.3252 14.4609 15.6147L12.8992 14.3653C12.5716 14.7748 12.0822 15.1491 11.381 15.4635L12.1991 17.2885ZM14.4755 15.596C14.9937 14.9159 15.3738 14.1764 15.6061 13.38L13.6861 12.82C13.5263 13.3676 13.2624 13.8881 12.8846 14.384L14.4755 15.596ZM15.6061 13.38C15.8237 12.6338 15.9401 11.9088 15.9401 11.21H13.9401C13.9401 11.6872 13.8604 12.2222 13.6861 12.82L15.6061 13.38ZM15.9401 11.21C15.9401 10.4709 15.8054 9.72989 15.5486 8.99148L13.6596 9.64852C13.8507 10.1981 13.9401 10.7171 13.9401 11.21H15.9401ZM15.5641 9.04C15.3267 8.22615 14.9205 7.48613 14.358 6.82435L12.8341 8.11965C13.2236 8.57787 13.4894 9.06985 13.6441 9.6L15.5641 9.04ZM14.3769 6.8473C13.8208 6.1521 13.092 5.60297 12.2239 5.185L11.3562 6.987C12.0001 7.29703 12.4753 7.6719 12.8152 8.09669L14.3769 6.8473ZM12.2373 5.19157C11.3345 4.74017 10.2754 4.54 9.10206 4.54V6.54C10.0567 6.54 10.7896 6.70382 11.3428 6.98043L12.2373 5.19157ZM9.10206 4.54H4.39805V6.54H9.10206V4.54ZM3.39805 5.54V16.922H5.39805V5.54H3.39805ZM4.39805 17.922H8.80806V15.922H4.39805V17.922ZM12.9568 19.76L20.8948 32.528L22.5933 31.472L14.6553 18.704L12.9568 19.76ZM21.7441 31H17.0401V33H21.7441V31ZM17.8831 31.4622L9.81914 18.8202L8.13297 19.8958L16.197 32.5378L17.8831 31.4622ZM9.00213 20.3577L13.8321 20.2317L13.78 18.2323L8.94998 18.3583L9.00213 20.3577ZM28.0096 1.634V0.633998H27.0096V1.634H28.0096ZM47.7496 1.634H48.7496V0.633998H47.7496V1.634ZM47.7496 5.54V6.54H48.7496V5.54H47.7496ZM32.0836 5.54V4.54H31.0836V5.54H32.0836ZM32.0836 14.78H31.0836V15.78H32.0836V14.78ZM46.0696 14.78H47.0696V13.78H46.0696V14.78ZM46.0696 18.686V19.686H47.0696V18.686H46.0696ZM32.0836 18.686V17.686H31.0836V18.686H32.0836ZM32.0836 28.094H31.0836V29.094H32.0836V28.094ZM48.3376 28.094H49.3376V27.094H48.3376V28.094ZM48.3376 32V33H49.3376V32H48.3376ZM28.0096 32H27.0096V33H28.0096V32ZM28.0096 2.634H47.7496V0.633998H28.0096V2.634ZM46.7496 1.634V5.54H48.7496V1.634H46.7496ZM47.7496 4.54H32.0836V6.54H47.7496V4.54ZM31.0836 5.54V14.78H33.0836V5.54H31.0836ZM32.0836 15.78H46.0696V13.78H32.0836V15.78ZM45.0696 14.78V18.686H47.0696V14.78H45.0696ZM46.0696 17.686H32.0836V19.686H46.0696V17.686ZM31.0836 18.686V28.094H33.0836V18.686H31.0836ZM32.0836 29.094H48.3376V27.094H32.0836V29.094ZM47.3376 28.094V32H49.3376V28.094H47.3376ZM48.3376 31H28.0096V33H48.3376V31ZM29.0096 32V1.634H27.0096V32H29.0096ZM53.182 1.634V0.633998H52.182V1.634H53.182ZM73.342 1.634H74.342V0.633998H73.342V1.634ZM73.342 5.54V6.54H74.342V5.54H73.342ZM65.194 5.54V4.54H64.194V5.54H65.194ZM65.194 32V33H66.194V32H65.194ZM61.12 32H60.12V33H61.12V32ZM61.12 5.54H62.12V4.54H61.12V5.54ZM53.182 5.54H52.182V6.54H53.182V5.54ZM53.182 2.634H73.342V0.633998H53.182V2.634ZM72.342 1.634V5.54H74.342V1.634H72.342ZM73.342 4.54H65.194V6.54H73.342V4.54ZM64.194 5.54V32H66.194V5.54H64.194ZM65.194 31H61.12V33H65.194V31ZM62.12 32V5.54H60.12V32H62.12ZM61.12 4.54H53.182V6.54H61.12V4.54ZM54.182 5.54V1.634H52.182V5.54H54.182ZM106.104 32.966L105.392 33.6681L105.686 33.966H106.104V32.966ZM82.6263 9.152L82.8689 8.18186L79.4141 7.31816L81.9142 9.85406L82.6263 9.152ZM83.8023 9.446L84.8023 9.44228L84.7994 8.6645L84.0449 8.47586L83.8023 9.446ZM83.8863 32V33H84.8901L84.8863 31.9963L83.8863 32ZM79.8123 32H78.8123V33H79.8123V32ZM79.8123 0.709997V-0.290003H78.8123V0.709997H79.8123ZM80.0223 0.709997L80.7395 0.0130449L80.4449 -0.290003H80.0223V0.709997ZM103.248 24.608L103.036 25.5852L106.277 26.2898L103.965 23.911L103.248 24.608ZM102.282 24.398L101.282 24.4017L101.285 25.2046L102.07 25.3752L102.282 24.398ZM102.198 1.634V0.633998H101.195L101.198 1.63769L102.198 1.634ZM106.23 1.634H107.23V0.633998H106.23V1.634ZM106.23 32.966V33.966H107.23V32.966H106.23ZM106.816 32.2639L83.3384 8.44993L81.9142 9.85406L105.392 33.6681L106.816 32.2639ZM82.3838 10.1221L83.5598 10.4161L84.0449 8.47586L82.8689 8.18186L82.3838 10.1221ZM82.8023 9.44972L82.8863 32.0037L84.8863 31.9963L84.8023 9.44228L82.8023 9.44972ZM83.8863 31H79.8123V33H83.8863V31ZM80.8123 32V0.709997H78.8123V32H80.8123ZM79.8123 1.71H80.0223V-0.290003H79.8123V1.71ZM79.3052 1.40695L102.531 25.305L103.965 23.911L80.7395 0.0130449L79.3052 1.40695ZM103.461 23.6308L102.495 23.4208L102.07 25.3752L103.036 25.5852L103.461 23.6308ZM103.282 24.3943L103.198 1.63031L101.198 1.63769L101.282 24.4017L103.282 24.3943ZM102.198 2.634H106.23V0.633998H102.198V2.634ZM105.23 1.634V32.966H107.23V1.634H105.23ZM106.23 31.966H106.104V33.966H106.23V31.966ZM111.939 32L111.017 31.613L110.435 33H111.939V32ZM125.211 0.373999V-0.626001H124.546L124.289 -0.0129627L125.211 0.373999ZM125.463 0.373999L126.385 -0.0119208L126.128 -0.626001H125.463V0.373999ZM138.693 32V33H140.195L139.615 31.6141L138.693 32ZM134.031 32L133.1 32.3655L133.349 33H134.031V32ZM124.119 6.758L123.572 5.92039L122.89 6.36534L123.188 7.12351L124.119 6.758ZM127.017 4.868L127.942 5.2463L129.155 2.27977L126.47 4.03039L127.017 4.868ZM115.929 32V33H116.6L116.854 32.3783L115.929 32ZM119.709 20.492V19.492H118.988L118.76 20.1758L119.709 20.492ZM131.007 20.492L131.941 20.136L131.696 19.492H131.007V20.492ZM132.351 24.02V25.02H133.802L133.285 23.664L132.351 24.02ZM118.533 24.02L117.584 23.7038L117.145 25.02H118.533V24.02ZM112.861 32.387L126.133 0.760961L124.289 -0.0129627L111.017 31.613L112.861 32.387ZM125.211 1.374H125.463V-0.626001H125.211V1.374ZM124.54 0.759919L137.77 32.3859L139.615 31.6141L126.385 -0.0119208L124.54 0.759919ZM138.693 31H134.031V33H138.693V31ZM134.962 31.6345L125.05 6.39249L123.188 7.12351L133.1 32.3655L134.962 31.6345ZM124.665 7.59561L127.563 5.70561L126.47 4.03039L123.572 5.92039L124.665 7.59561ZM126.091 4.4897L115.003 31.6217L116.854 32.3783L127.942 5.2463L126.091 4.4897ZM115.929 31H111.939V33H115.929V31ZM119.709 21.492H131.007V19.492H119.709V21.492ZM130.072 20.848L131.416 24.376L133.285 23.664L131.941 20.136L130.072 20.848ZM132.351 23.02H118.533V25.02H132.351V23.02ZM119.481 24.3362L120.657 20.8082L118.76 20.1758L117.584 23.7038L119.481 24.3362Z" fill="black"/>
</svg>
